<?xml version="1.0" encoding="utf-8"?>
<svg xmlns="http://www.w3.org/2000/svg" version="1.1" width="2000" height="2000">

<polygon points=" 150,75 1150,75 1150,475 150,475" style="fill:azure;stroke:lightgrey;stroke-width:1.25" />
<polygon points=" 150,475 1150,475 1150,515 150,515" style="fill:darkgrey;stroke:black;stroke-width:1.25" />
<circle cx="875" cy="475" r="25" fill="lightblue" />
<circle cx="875" cy="475" r="25" fill="none" stroke="black" stroke-width="1.25" />
<polygon points=" 835,485 820,475 835,465 850,475" style="fill:purple;stroke:black;stroke-width:1" />
<polygon points=" 885,455 915,455 915,475 885,475" style="fill:peru;stroke:black;stroke-width:1.25" />
<polygon points=" 370,365 430,365 430,475 370,475" style="fill:lightseagreen;stroke:black;stroke-width:1.25" />
<polygon points=" 407,380 415,380 415,388 407,388" style="fill:orange;stroke:black;stroke-width:1.25" />
<polygon points=" 377,380 385,380 385,388 377,388" style="fill:orange;stroke:black;stroke-width:1.25" />
<polygon points=" 430,377 510,377 510,397 430,397" style="fill:turquoise;stroke:black;stroke-width:1.25" />
<polygon points=" 438,397 448,397 448,417 438,417" style="fill:lightgreen;stroke:black;stroke-width:1.25" />
<polygon points=" 492,397 502,397 502,417 492,417" style="fill:lightgreen;stroke:black;stroke-width:1.25" />
<polygon points=" 290,377 370,377 370,397 290,397" style="fill:turquoise;stroke:black;stroke-width:1.25" />
<polygon points=" 298,397 308,397 308,417 298,417" style="fill:lightgreen;stroke:black;stroke-width:1.25" />
<polygon points=" 352,397 362,397 362,417 352,417" style="fill:lightgreen;stroke:black;stroke-width:1.25" />
<polygon points=" 370,365 430,365 430,475 370,475" style="fill:lightseagreen;stroke:black;stroke-width:1.25" />
<polygon points=" 407,380 415,380 415,388 407,388" style="fill:turquoise;stroke:black;stroke-width:1.25" />
<polygon points=" 377,380 385,380 385,388 377,388" style="fill:red;stroke:black;stroke-width:1.25" />
<polygon points=" 430,377 510,377 510,397 430,397" style="fill:turquoise;stroke:black;stroke-width:1.25" />
<polygon points=" 438,397 448,397 448,417 438,417" style="fill:lightgreen;stroke:black;stroke-width:1.25" />
<polygon points=" 492,397 502,397 502,417 492,417" style="fill:lightgreen;stroke:black;stroke-width:1.25" />
<polygon points=" 290,377 370,377 370,397 290,397" style="fill:turquoise;stroke:black;stroke-width:1.25" />
<polygon points=" 298,397 308,397 308,417 298,417" style="fill:lightgreen;stroke:black;stroke-width:1.25" />
<polygon points=" 352,397 362,397 362,417 352,417" style="fill:lightgreen;stroke:black;stroke-width:1.25" />


</svg>
