<?xml version="1.0" encoding="utf-8"?>
<svg xmlns="http://www.w3.org/2000/svg" version="1.1" width="2000" height="2000">

<polygon points=" 150,75 950,75 950,475 150,475" style="fill:azure;stroke:darkgrey;stroke-width:1.25" />
<polygon points=" 70,475 1030,475 1030,515 70,515" style="fill:darkgrey;stroke:black;stroke-width:1.25" />
<polygon points=" 775,455 805,455 805,475 775,475" style="fill:peru;stroke:black;stroke-width:1.25" />
<polygon points=" 70,475 1030,475 1030,475 70,475" style="fill:red;stroke:red;stroke-width:2.5" />
<polygon points=" 328,365 388,365 388,475 328,475" style="fill:lightseagreen;stroke:black;stroke-width:1.25" />
<polygon points=" 365,380 373,380 373,388 365,388" style="fill:orange;stroke:black;stroke-width:1.25" />
<polygon points=" 388,475 388,365 388,365 388,475" style="fill:red;stroke:red;stroke-width:2.5" />
<polygon points=" 388,410 468,410 468,430 388,430" style="fill:turquoise;stroke:black;stroke-width:1.25" />
<polygon points=" 428,430 388,430 388,430 428,430" style="fill:red;stroke:red;stroke-width:2.5" />
<polygon points=" 398,430 408,430 408,450 398,450" style="fill:lightgreen;stroke:black;stroke-width:1.25" />
<polygon points=" 428,430 468,430 468,430 428,430" style="fill:red;stroke:red;stroke-width:2.5" />
<polygon points=" 448,430 458,430 458,450 448,450" style="fill:lightgreen;stroke:black;stroke-width:1.25" />


</svg>
