<?xml version="1.0" encoding="utf-8"?>
<svg xmlns="http://www.w3.org/2000/svg" version="1.1" width="2000" height="2000">

<polygon points=" 150,75 1150,75 1150,475 150,475" style="fill:azure;stroke:darkgrey;stroke-width:1.25" />
<polygon points=" 150,475 1150,475 1150,515 150,515" style="fill:darkgrey;stroke:black;stroke-width:1.25" />
<polygon points=" 885,455 915,455 915,475 885,475" style="fill:peru;stroke:black;stroke-width:1.25" />
<polygon points=" 150,475 1150,475 1150,475 150,475" style="fill:red;stroke:red;stroke-width:2.5" />
<polygon points=" 420,365 480,365 480,475 420,475" style="fill:lightseagreen;stroke:black;stroke-width:1.25" />
<polygon points=" 457,380 465,380 465,388 457,388" style="fill:orange;stroke:black;stroke-width:1.25" />
<polygon points=" 427,380 435,380 435,388 427,388" style="fill:orange;stroke:black;stroke-width:1.25" />
<polygon points=" 480,475 480,365 480,365 480,475" style="fill:red;stroke:red;stroke-width:2.5" />
<polygon points=" 480,410 560,410 560,430 480,430" style="fill:turquoise;stroke:black;stroke-width:1.25" />
<polygon points=" 520,430 480,430 480,430 520,430" style="fill:red;stroke:red;stroke-width:2.5" />
<polygon points=" 490,430 500,430 500,450 490,450" style="fill:lightgreen;stroke:black;stroke-width:1.25" />
<polygon points=" 520,430 560,430 560,430 520,430" style="fill:red;stroke:red;stroke-width:2.5" />
<polygon points=" 540,430 550,430 550,450 540,450" style="fill:lightgreen;stroke:black;stroke-width:1.25" />
<polygon points=" 420,475 420,365 420,365 420,475" style="fill:red;stroke:red;stroke-width:2.5" />
<polygon points=" 340,410 420,410 420,430 340,430" style="fill:turquoise;stroke:black;stroke-width:1.25" />
<polygon points=" 380,430 340,430 340,430 380,430" style="fill:red;stroke:red;stroke-width:2.5" />
<polygon points=" 350,430 360,430 360,450 350,450" style="fill:lightgreen;stroke:black;stroke-width:1.25" />
<polygon points=" 380,430 420,430 420,430 380,430" style="fill:red;stroke:red;stroke-width:2.5" />
<polygon points=" 400,430 410,430 410,450 400,450" style="fill:lightgreen;stroke:black;stroke-width:1.25" />
<polygon points=" 150,475 1150,475 1150,475 150,475" style="fill:red;stroke:red;stroke-width:2.5" />
<polygon points=" 720,365 780,365 780,475 720,475" style="fill:lightseagreen;stroke:black;stroke-width:1.25" />
<polygon points=" 757,380 765,380 765,388 757,388" style="fill:turquoise;stroke:black;stroke-width:1.25" />
<polygon points=" 727,380 735,380 735,388 727,388" style="fill:red;stroke:black;stroke-width:1.25" />
<polygon points=" 780,475 780,365 780,365 780,475" style="fill:red;stroke:red;stroke-width:2.5" />
<polygon points=" 780,410 860,410 860,430 780,430" style="fill:turquoise;stroke:black;stroke-width:1.25" />
<polygon points=" 820,430 780,430 780,430 820,430" style="fill:red;stroke:red;stroke-width:2.5" />
<polygon points=" 790,430 800,430 800,450 790,450" style="fill:lightgreen;stroke:black;stroke-width:1.25" />
<polygon points=" 820,430 860,430 860,430 820,430" style="fill:red;stroke:red;stroke-width:2.5" />
<polygon points=" 840,430 850,430 850,450 840,450" style="fill:lightgreen;stroke:black;stroke-width:1.25" />
<polygon points=" 720,475 720,365 720,365 720,475" style="fill:red;stroke:red;stroke-width:2.5" />
<polygon points=" 640,410 720,410 720,430 640,430" style="fill:turquoise;stroke:black;stroke-width:1.25" />
<polygon points=" 680,430 640,430 640,430 680,430" style="fill:red;stroke:red;stroke-width:2.5" />
<polygon points=" 650,430 660,430 660,450 650,450" style="fill:lightgreen;stroke:black;stroke-width:1.25" />
<polygon points=" 680,430 720,430 720,430 680,430" style="fill:red;stroke:red;stroke-width:2.5" />
<polygon points=" 700,430 710,430 710,450 700,450" style="fill:lightgreen;stroke:black;stroke-width:1.25" />


</svg>
