<?xml version="1.0" encoding="utf-8"?>
<svg xmlns="http://www.w3.org/2000/svg" version="1.1" width="1000" height="800">

<line x1="0" y1="0" x2="1000" y2="0" stroke="lightgrey" />
<text x="5" y="-5" fill="lightgrey" >0</text>
<line x1="0" y1="100" x2="1000" y2="100" stroke="lightgrey" />
<text x="5" y="95" fill="lightgrey" >100</text>
<line x1="0" y1="200" x2="1000" y2="200" stroke="lightgrey" />
<text x="5" y="195" fill="lightgrey" >200</text>
<line x1="0" y1="300" x2="1000" y2="300" stroke="lightgrey" />
<text x="5" y="295" fill="lightgrey" >300</text>
<line x1="0" y1="400" x2="1000" y2="400" stroke="lightgrey" />
<text x="5" y="395" fill="lightgrey" >400</text>
<line x1="0" y1="500" x2="1000" y2="500" stroke="lightgrey" />
<text x="5" y="495" fill="lightgrey" >500</text>
<line x1="0" y1="600" x2="1000" y2="600" stroke="lightgrey" />
<text x="5" y="595" fill="lightgrey" >600</text>
<line x1="0" y1="700" x2="1000" y2="700" stroke="lightgrey" />
<text x="5" y="695" fill="lightgrey" >700</text>
<line x1="0" y1="800" x2="1000" y2="800" stroke="lightgrey" />
<text x="5" y="795" fill="lightgrey" >800</text>
<line x1="0" y1="0" x2="0" y2="800" stroke="lightgrey" />
<text x="5" y="15" fill="lightgrey" >0</text>
<line x1="100" y1="0" x2="100" y2="800" stroke="lightgrey" />
<text x="105" y="15" fill="lightgrey" >100</text>
<line x1="200" y1="0" x2="200" y2="800" stroke="lightgrey" />
<text x="205" y="15" fill="lightgrey" >200</text>
<line x1="300" y1="0" x2="300" y2="800" stroke="lightgrey" />
<text x="305" y="15" fill="lightgrey" >300</text>
<line x1="400" y1="0" x2="400" y2="800" stroke="lightgrey" />
<text x="405" y="15" fill="lightgrey" >400</text>
<line x1="500" y1="0" x2="500" y2="800" stroke="lightgrey" />
<text x="505" y="15" fill="lightgrey" >500</text>
<line x1="600" y1="0" x2="600" y2="800" stroke="lightgrey" />
<text x="605" y="15" fill="lightgrey" >600</text>
<line x1="700" y1="0" x2="700" y2="800" stroke="lightgrey" />
<text x="705" y="15" fill="lightgrey" >700</text>
<line x1="800" y1="0" x2="800" y2="800" stroke="lightgrey" />
<text x="805" y="15" fill="lightgrey" >800</text>
<line x1="900" y1="0" x2="900" y2="800" stroke="lightgrey" />
<text x="905" y="15" fill="lightgrey" >900</text>
<line x1="1000" y1="0" x2="1000" y2="800" stroke="lightgrey" />
<text x="1005" y="15" fill="lightgrey" >1000</text>
<circle cx="-3.06152e-015" cy="50" r="50" fill="white" />
<circle cx="-3.06152e-015" cy="50" r="50" fill="none" stroke="black" stroke-width="1" />
<circle cx="35.3553" cy="135.355" r="50" fill="white" />
<circle cx="35.3553" cy="135.355" r="50" fill="none" stroke="black" stroke-width="1" />
<circle cx="70.7107" cy="220.711" r="50" fill="white" />
<circle cx="70.7107" cy="220.711" r="50" fill="none" stroke="black" stroke-width="1" />
<circle cx="106.066" cy="306.066" r="50" fill="white" />
<circle cx="106.066" cy="306.066" r="50" fill="none" stroke="black" stroke-width="1" />
<polygon points=" 141.421,341.421 241.421,341.421 241.421,441.421 141.421,441.421" style="fill:lightgreen;stroke:black;stroke-width:1" />
<polygon points=" 241.421,441.421 341.421,441.421 341.421,541.421 241.421,541.421" style="fill:lightgreen;stroke:black;stroke-width:1" />
<polygon points=" 341.421,541.421 441.421,541.421 441.421,641.421 341.421,641.421" style="fill:lightgreen;stroke:black;stroke-width:1" />
<polygon points=" 441.421,641.421 541.421,641.421 541.421,741.421 441.421,741.421" style="fill:lightgreen;stroke:black;stroke-width:1" />
<polygon points=" 541.421,741.421 641.421,741.421 641.421,841.421 541.421,841.421" style="fill:lightgreen;stroke:black;stroke-width:1" />


</svg>
