<?xml version="1.0" encoding="utf-8"?>
<svg xmlns="http://www.w3.org/2000/svg" version="1.1" width="2000" height="2000">

<polygon points=" 150,75 1150,75 1150,475 150,475" style="fill:azure;stroke:lightgrey;stroke-width:1.25" />
<polygon points=" 150,475 1150,475 1150,515 150,515" style="fill:darkgrey;stroke:black;stroke-width:1.25" />
<circle cx="900" cy="450" r="25" fill="lightblue" />
<circle cx="900" cy="450" r="25" fill="none" stroke="black" stroke-width="1.25" />
<polygon points=" 896.156,442.613 878.42,445.84 882.263,428.226 900,425" style="fill:purple;stroke:black;stroke-width:1" />
<polygon points=" 985,455 1015,455 1015,475 985,475" style="fill:peru;stroke:black;stroke-width:1.25" />
<polygon points=" 375,365 435,365 435,475 375,475" style="fill:lightseagreen;stroke:black;stroke-width:1.25" />
<polygon points=" 412,380 420,380 420,388 412,388" style="fill:orange;stroke:black;stroke-width:1.25" />
<polygon points=" 382,380 390,380 390,388 382,388" style="fill:orange;stroke:black;stroke-width:1.25" />
<polygon points=" 435,410 515,410 515,430 435,430" style="fill:turquoise;stroke:black;stroke-width:1.25" />
<polygon points=" 465,430 475,430 475,450 465,450" style="fill:lightgreen;stroke:black;stroke-width:1.25" />
<polygon points=" 475,430 485,430 485,450 475,450" style="fill:lightgreen;stroke:black;stroke-width:1.25" />
<polygon points=" 295,410 375,410 375,430 295,430" style="fill:turquoise;stroke:black;stroke-width:1.25" />
<polygon points=" 325,430 335,430 335,450 325,450" style="fill:lightgreen;stroke:black;stroke-width:1.25" />
<polygon points=" 335,430 345,430 345,450 335,450" style="fill:lightgreen;stroke:black;stroke-width:1.25" />
<polygon points=" 615,365 675,365 675,475 615,475" style="fill:lightseagreen;stroke:black;stroke-width:1.25" />
<polygon points=" 652,380 660,380 660,388 652,388" style="fill:turquoise;stroke:black;stroke-width:1.25" />
<polygon points=" 622,380 630,380 630,388 622,388" style="fill:red;stroke:black;stroke-width:1.25" />
<polygon points=" 675,410 755,410 755,430 675,430" style="fill:turquoise;stroke:black;stroke-width:1.25" />
<polygon points=" 665.4,430 675.4,430 675.4,450 665.4,450" style="fill:lightgreen;stroke:black;stroke-width:1.25" />
<polygon points=" 754.6,430 764.6,430 764.6,450 754.6,450" style="fill:lightgreen;stroke:black;stroke-width:1.25" />
<polygon points=" 515,425.5 565,410.5 615,425.5 565,440.5" style="fill:turquoise;stroke:black;stroke-width:1" />
<polygon points=" 530.25,433.075 540.25,433.075 540.25,453.075 530.25,453.075" style="fill:lightgreen;stroke:black;stroke-width:1.25" />
<polygon points=" 589.75,433.075 599.75,433.075 599.75,453.075 589.75,453.075" style="fill:lightgreen;stroke:black;stroke-width:1.25" />
<circle cx="515" cy="425.5" r="7.5" fill="none" stroke="rgb(255,79,0)" stroke-width="2" />


</svg>
