<?xml version="1.0" encoding="utf-8"?>
<svg xmlns="http://www.w3.org/2000/svg" version="1.1" width="2000" height="2000">

<polygon points=" 150,75 1150,75 1150,475 150,475" style="fill:azure;stroke:lightgrey;stroke-width:1.25" />
<polygon points=" 150,475 1150,475 1150,515 150,515" style="fill:darkgrey;stroke:black;stroke-width:1.25" />
<circle cx="900" cy="450" r="25" fill="lightblue" />
<circle cx="900" cy="450" r="25" fill="none" stroke="black" stroke-width="1.25" />
<polygon points=" 896.156,442.613 878.42,445.84 882.263,428.226 900,425" style="fill:purple;stroke:black;stroke-width:1" />
<polygon points=" 985,455 1015,455 1015,475 985,475" style="fill:peru;stroke:black;stroke-width:1.25" />
<polygon points=" 155,365 215,365 215,475 155,475" style="fill:lightseagreen;stroke:black;stroke-width:1.25" />
<polygon points=" 192,380 200,380 200,388 192,388" style="fill:orange;stroke:black;stroke-width:1.25" />
<polygon points=" 162,380 170,380 170,388 162,388" style="fill:orange;stroke:black;stroke-width:1.25" />
<polygon points=" 215,410 295,410 295,430 215,430" style="fill:turquoise;stroke:black;stroke-width:1.25" />
<polygon points=" 205,430 215,430 215,450 205,450" style="fill:lightgreen;stroke:black;stroke-width:1.25" />
<polygon points=" 295,430 305,430 305,450 295,450" style="fill:lightgreen;stroke:black;stroke-width:1.25" />
<polygon points=" 75,410 155,410 155,430 75,430" style="fill:turquoise;stroke:black;stroke-width:1.25" />
<polygon points=" 65,430 75,430 75,450 65,450" style="fill:lightgreen;stroke:black;stroke-width:1.25" />
<polygon points=" 155,430 165,430 165,450 155,450" style="fill:lightgreen;stroke:black;stroke-width:1.25" />
<polygon points=" 620,365 680,365 680,475 620,475" style="fill:lightseagreen;stroke:black;stroke-width:1.25" />
<polygon points=" 657,380 665,380 665,388 657,388" style="fill:turquoise;stroke:black;stroke-width:1.25" />
<polygon points=" 627,380 635,380 635,388 627,388" style="fill:red;stroke:black;stroke-width:1.25" />
<polygon points=" 680,410 760,410 760,430 680,430" style="fill:turquoise;stroke:black;stroke-width:1.25" />
<polygon points=" 690,430 700,430 700,450 690,450" style="fill:lightgreen;stroke:black;stroke-width:1.25" />
<polygon points=" 740,430 750,430 750,450 740,450" style="fill:lightgreen;stroke:black;stroke-width:1.25" />
<polygon points=" 520,425.5 570,410.5 620,425.5 570,440.5" style="fill:turquoise;stroke:black;stroke-width:1" />
<polygon points=" 547.5,436.75 557.5,436.75 557.5,456.75 547.5,456.75" style="fill:lightgreen;stroke:black;stroke-width:1.25" />
<polygon points=" 582.5,436.75 592.5,436.75 592.5,456.75 582.5,456.75" style="fill:lightgreen;stroke:black;stroke-width:1.25" />


</svg>
