<?xml version="1.0" encoding="utf-8"?>
<svg xmlns="http://www.w3.org/2000/svg" version="1.1" width="2000" height="2000">

<polygon points=" 150,75 1150,75 1150,475 150,475" style="fill:azure;stroke:darkgrey;stroke-width:1.25" />
<polygon points=" 150,475 1150,475 1150,515 150,515" style="fill:darkgrey;stroke:black;stroke-width:1.25" />
<polygon points=" 885,455 915,455 915,475 885,475" style="fill:peru;stroke:black;stroke-width:1.25" />
<polygon points=" 150,475 1150,475 1150,475 150,475" style="fill:red;stroke:red;stroke-width:2.5" />
<polygon points=" 520,365 580,365 580,475 520,475" style="fill:lightseagreen;stroke:black;stroke-width:1.25" />
<polygon points=" 557,380 565,380 565,388 557,388" style="fill:orange;stroke:black;stroke-width:1.25" />
<polygon points=" 527,380 535,380 535,388 527,388" style="fill:orange;stroke:black;stroke-width:1.25" />
<polygon points=" 580,475 580,365 580,365 580,475" style="fill:red;stroke:red;stroke-width:2.5" />
<polygon points=" 580,410 660,410 660,430 580,430" style="fill:turquoise;stroke:black;stroke-width:1.25" />
<polygon points=" 620,430 580,430 580,430 620,430" style="fill:red;stroke:red;stroke-width:2.5" />
<polygon points=" 590,430 600,430 600,450 590,450" style="fill:lightgreen;stroke:black;stroke-width:1.25" />
<polygon points=" 620,430 660,430 660,430 620,430" style="fill:red;stroke:red;stroke-width:2.5" />
<polygon points=" 640,430 650,430 650,450 640,450" style="fill:lightgreen;stroke:black;stroke-width:1.25" />
<polygon points=" 520,475 520,365 520,365 520,475" style="fill:red;stroke:red;stroke-width:2.5" />
<polygon points=" 440,410 520,410 520,430 440,430" style="fill:turquoise;stroke:black;stroke-width:1.25" />
<polygon points=" 480,430 440,430 440,430 480,430" style="fill:red;stroke:red;stroke-width:2.5" />
<polygon points=" 450,430 460,430 460,450 450,450" style="fill:lightgreen;stroke:black;stroke-width:1.25" />
<polygon points=" 480,430 520,430 520,430 480,430" style="fill:red;stroke:red;stroke-width:2.5" />
<polygon points=" 500,430 510,430 510,450 500,450" style="fill:lightgreen;stroke:black;stroke-width:1.25" />
<polygon points=" 150,475 1150,475 1150,475 150,475" style="fill:red;stroke:red;stroke-width:2.5" />
<polygon points=" 820,365 880,365 880,475 820,475" style="fill:lightseagreen;stroke:black;stroke-width:1.25" />
<polygon points=" 857,380 865,380 865,388 857,388" style="fill:turquoise;stroke:black;stroke-width:1.25" />
<polygon points=" 827,380 835,380 835,388 827,388" style="fill:red;stroke:black;stroke-width:1.25" />
<polygon points=" 880,475 880,365 880,365 880,475" style="fill:red;stroke:red;stroke-width:2.5" />
<polygon points=" 880,410 960,410 960,430 880,430" style="fill:turquoise;stroke:black;stroke-width:1.25" />
<polygon points=" 920,430 880,430 880,430 920,430" style="fill:red;stroke:red;stroke-width:2.5" />
<polygon points=" 890,430 900,430 900,450 890,450" style="fill:lightgreen;stroke:black;stroke-width:1.25" />
<polygon points=" 920,430 960,430 960,430 920,430" style="fill:red;stroke:red;stroke-width:2.5" />
<polygon points=" 940,430 950,430 950,450 940,450" style="fill:lightgreen;stroke:black;stroke-width:1.25" />
<polygon points=" 820,475 820,365 820,365 820,475" style="fill:red;stroke:red;stroke-width:2.5" />
<polygon points=" 740,410 820,410 820,430 740,430" style="fill:turquoise;stroke:black;stroke-width:1.25" />
<polygon points=" 780,430 740,430 740,430 780,430" style="fill:red;stroke:red;stroke-width:2.5" />
<polygon points=" 750,430 760,430 760,450 750,450" style="fill:lightgreen;stroke:black;stroke-width:1.25" />
<polygon points=" 780,430 820,430 820,430 780,430" style="fill:red;stroke:red;stroke-width:2.5" />
<polygon points=" 800,430 810,430 810,450 800,450" style="fill:lightgreen;stroke:black;stroke-width:1.25" />


</svg>
