<?xml version="1.0" encoding="utf-8"?>
<svg xmlns="http://www.w3.org/2000/svg" version="1.1" width="1000" height="800">

<line x1="0" y1="0" x2="1000" y2="0" stroke="lightgrey" />
<text x="5" y="-5" fill="lightgrey" >0</text>
<line x1="0" y1="100" x2="1000" y2="100" stroke="lightgrey" />
<text x="5" y="95" fill="lightgrey" >100</text>
<line x1="0" y1="200" x2="1000" y2="200" stroke="lightgrey" />
<text x="5" y="195" fill="lightgrey" >200</text>
<line x1="0" y1="300" x2="1000" y2="300" stroke="lightgrey" />
<text x="5" y="295" fill="lightgrey" >300</text>
<line x1="0" y1="400" x2="1000" y2="400" stroke="lightgrey" />
<text x="5" y="395" fill="lightgrey" >400</text>
<line x1="0" y1="500" x2="1000" y2="500" stroke="lightgrey" />
<text x="5" y="495" fill="lightgrey" >500</text>
<line x1="0" y1="600" x2="1000" y2="600" stroke="lightgrey" />
<text x="5" y="595" fill="lightgrey" >600</text>
<line x1="0" y1="700" x2="1000" y2="700" stroke="lightgrey" />
<text x="5" y="695" fill="lightgrey" >700</text>
<line x1="0" y1="800" x2="1000" y2="800" stroke="lightgrey" />
<text x="5" y="795" fill="lightgrey" >800</text>
<line x1="0" y1="0" x2="0" y2="800" stroke="lightgrey" />
<text x="5" y="15" fill="lightgrey" >0</text>
<line x1="100" y1="0" x2="100" y2="800" stroke="lightgrey" />
<text x="105" y="15" fill="lightgrey" >100</text>
<line x1="200" y1="0" x2="200" y2="800" stroke="lightgrey" />
<text x="205" y="15" fill="lightgrey" >200</text>
<line x1="300" y1="0" x2="300" y2="800" stroke="lightgrey" />
<text x="305" y="15" fill="lightgrey" >300</text>
<line x1="400" y1="0" x2="400" y2="800" stroke="lightgrey" />
<text x="405" y="15" fill="lightgrey" >400</text>
<line x1="500" y1="0" x2="500" y2="800" stroke="lightgrey" />
<text x="505" y="15" fill="lightgrey" >500</text>
<line x1="600" y1="0" x2="600" y2="800" stroke="lightgrey" />
<text x="605" y="15" fill="lightgrey" >600</text>
<line x1="700" y1="0" x2="700" y2="800" stroke="lightgrey" />
<text x="705" y="15" fill="lightgrey" >700</text>
<line x1="800" y1="0" x2="800" y2="800" stroke="lightgrey" />
<text x="805" y="15" fill="lightgrey" >800</text>
<line x1="900" y1="0" x2="900" y2="800" stroke="lightgrey" />
<text x="905" y="15" fill="lightgrey" >900</text>
<line x1="1000" y1="0" x2="1000" y2="800" stroke="lightgrey" />
<text x="1005" y="15" fill="lightgrey" >1000</text>
<polygon points=" 0,0 200,0 200,100 0,100" style="fill:white;stroke:black;stroke-width:1" />
<line x1="100" y1="50" x2="200" y2="100" stroke="red" />
<polygon points=" 175,87.5 375,87.5 375,187.5 175,187.5" style="fill:white;stroke:black;stroke-width:1" />
<line x1="275" y1="137.5" x2="375" y2="187.5" stroke="red" />
<polygon points=" 350,175 550,175 550,275 350,275" style="fill:white;stroke:black;stroke-width:1" />
<line x1="450" y1="225" x2="550" y2="275" stroke="red" />
<polygon points=" 525,262.5 725,262.5 725,362.5 525,362.5" style="fill:white;stroke:black;stroke-width:1" />
<polygon points=" 705,402.5 730,352.5 755,402.5" style="fill:lightgreen;stroke:black;stroke-width:1" />
<polygon points=" 735,442.5 760,392.5 785,442.5" style="fill:lightgreen;stroke:black;stroke-width:1" />
<polygon points=" 765,482.5 790,432.5 815,482.5" style="fill:lightgreen;stroke:black;stroke-width:1" />
<polygon points=" 795,522.5 820,472.5 845,522.5" style="fill:lightgreen;stroke:black;stroke-width:1" />
<polygon points=" 825,562.5 850,512.5 875,562.5" style="fill:lightgreen;stroke:black;stroke-width:1" />
<circle cx="890.355" cy="487.145" r="50" fill="lightblue" />
<circle cx="890.355" cy="487.145" r="50" fill="none" stroke="black" stroke-width="1" />
<circle cx="961.066" cy="416.434" r="50" fill="lightblue" />
<circle cx="961.066" cy="416.434" r="50" fill="none" stroke="black" stroke-width="1" />
<circle cx="1031.78" cy="345.723" r="50" fill="lightblue" />
<circle cx="1031.78" cy="345.723" r="50" fill="none" stroke="black" stroke-width="1" />
<circle cx="1102.49" cy="275.013" r="50" fill="lightblue" />
<circle cx="1102.49" cy="275.013" r="50" fill="none" stroke="black" stroke-width="1" />
<circle cx="1173.2" cy="204.302" r="50" fill="lightblue" />
<circle cx="1173.2" cy="204.302" r="50" fill="none" stroke="black" stroke-width="1" />


</svg>
