<?xml version="1.0" encoding="utf-8"?>
<svg xmlns="http://www.w3.org/2000/svg" version="1.1" width="2000" height="2000">

<polygon points=" 150,75 1150,75 1150,475 150,475" style="fill:azure;stroke:darkgrey;stroke-width:1.25" />
<polygon points=" 157.596,561.824 1142.4,388.176 1149.35,427.568 164.542,601.216" style="fill:darkgrey;stroke:black;stroke-width:1.25" />
<circle cx="650" cy="475" r="5" fill="none" stroke="red" stroke-width="2" />
<circle cx="891.861" cy="406.968" r="25" fill="lightblue" />
<circle cx="891.861" cy="406.968" r="25" fill="none" stroke="black" stroke-width="1.25" />
<circle cx="896.202" cy="431.588" r="5" fill="none" stroke="red" stroke-width="2" />
<polygon points=" 875.067,369.312 882.31,352.803 894.763,365.839 887.52,382.348" style="fill:purple;stroke:black;stroke-width:1" />
<circle cx="887.52" cy="382.348" r="5" fill="none" stroke="red" stroke-width="2" />
<polygon points=" 877.957,414.497 907.501,409.287 910.974,428.983 881.43,434.193" style="fill:peru;stroke:black;stroke-width:1.25" />
<polygon points=" 157.596,561.824 1142.4,388.176 1142.4,388.176 157.596,561.824" style="fill:red;stroke:red;stroke-width:2.5" />
<polygon points=" 207.431,441.34 266.52,430.921 285.621,539.25 226.533,549.669" style="fill:lightseagreen;stroke:black;stroke-width:1.25" />
<polygon points=" 246.474,449.687 254.352,448.298 255.742,456.176 247.863,457.565" style="fill:orange;stroke:black;stroke-width:1.25" />
<polygon points=" 216.93,454.896 224.808,453.507 226.197,461.386 218.319,462.775" style="fill:orange;stroke:black;stroke-width:1.25" />
<polygon points=" 285.621,539.25 266.52,430.921 266.52,430.921 285.621,539.25" style="fill:red;stroke:red;stroke-width:2.5" />
<polygon points=" 274.334,475.237 353.119,461.345 356.592,481.042 277.807,494.933" style="fill:turquoise;stroke:black;stroke-width:1.25" />
<polygon points=" 317.199,487.988 277.807,494.933 277.807,494.933 317.199,487.988" style="fill:red;stroke:red;stroke-width:2.5" />
<polygon points=" 287.655,493.197 297.503,491.461 300.976,511.157 291.128,512.893" style="fill:lightgreen;stroke:black;stroke-width:1.25" />
<polygon points=" 317.199,487.988 356.592,481.042 356.592,481.042 317.199,487.988" style="fill:red;stroke:red;stroke-width:2.5" />
<polygon points=" 336.895,484.515 346.744,482.778 350.216,502.474 340.368,504.211" style="fill:lightgreen;stroke:black;stroke-width:1.25" />
<polygon points=" 226.533,549.669 207.431,441.34 207.431,441.34 226.533,549.669" style="fill:red;stroke:red;stroke-width:2.5" />
<polygon points=" 136.461,499.548 215.246,485.656 218.718,505.352 139.934,519.244" style="fill:turquoise;stroke:black;stroke-width:1.25" />
<polygon points=" 179.326,512.298 139.934,519.244 139.934,519.244 179.326,512.298" style="fill:red;stroke:red;stroke-width:2.5" />
<polygon points=" 149.782,517.508 159.63,515.771 163.103,535.467 153.255,537.204" style="fill:lightgreen;stroke:black;stroke-width:1.25" />
<polygon points=" 179.326,512.298 218.718,505.352 218.718,505.352 179.326,512.298" style="fill:red;stroke:red;stroke-width:2.5" />
<polygon points=" 199.022,508.825 208.87,507.089 212.343,526.785 202.495,528.521" style="fill:lightgreen;stroke:black;stroke-width:1.25" />
<polygon points=" 157.596,561.824 1142.4,388.176 1142.4,388.176 157.596,561.824" style="fill:red;stroke:red;stroke-width:2.5" />
<polygon points=" 601.354,371.881 660.443,361.462 679.544,469.791 620.456,480.209" style="fill:lightseagreen;stroke:black;stroke-width:1.25" />
<polygon points=" 640.397,380.228 648.276,378.839 649.665,386.717 641.786,388.106" style="fill:turquoise;stroke:black;stroke-width:1.25" />
<polygon points=" 610.853,385.437 618.731,384.048 620.12,391.926 612.242,393.316" style="fill:red;stroke:black;stroke-width:1.25" />
<polygon points=" 679.544,469.791 660.443,361.462 660.443,361.462 679.544,469.791" style="fill:red;stroke:red;stroke-width:2.5" />
<polygon points=" 668.257,405.778 747.042,391.886 750.515,411.582 671.73,425.474" style="fill:turquoise;stroke:black;stroke-width:1.25" />
<polygon points=" 711.122,418.528 671.73,425.474 671.73,425.474 711.122,418.528" style="fill:red;stroke:red;stroke-width:2.5" />
<polygon points=" 681.578,423.738 691.426,422.001 694.899,441.697 685.051,443.434" style="fill:lightgreen;stroke:black;stroke-width:1.25" />
<polygon points=" 711.122,418.528 750.515,411.582 750.515,411.582 711.122,418.528" style="fill:red;stroke:red;stroke-width:2.5" />
<polygon points=" 730.819,415.055 740.667,413.319 744.14,433.015 734.291,434.751" style="fill:lightgreen;stroke:black;stroke-width:1.25" />
<polygon points=" 620.456,480.209 601.354,371.881 601.354,371.881 620.456,480.209" style="fill:red;stroke:red;stroke-width:2.5" />
<polygon points=" 530.384,430.089 609.169,416.197 612.642,435.893 533.857,449.785" style="fill:turquoise;stroke:black;stroke-width:1.25" />
<polygon points=" 573.249,442.839 533.857,449.785 533.857,449.785 573.249,442.839" style="fill:red;stroke:red;stroke-width:2.5" />
<polygon points=" 543.705,448.048 553.553,446.312 557.026,466.008 547.178,467.745" style="fill:lightgreen;stroke:black;stroke-width:1.25" />
<polygon points=" 573.249,442.839 612.642,435.893 612.642,435.893 573.249,442.839" style="fill:red;stroke:red;stroke-width:2.5" />
<polygon points=" 592.945,439.366 602.794,437.63 606.266,457.326 596.418,459.062" style="fill:lightgreen;stroke:black;stroke-width:1.25" />


</svg>
