<?xml version="1.0" encoding="utf-8"?>
<svg xmlns="http://www.w3.org/2000/svg" version="1.1" width="2000" height="2000">

<polygon points=" 150,75 1150,75 1150,475 150,475" style="fill:azure;stroke:lightgrey;stroke-width:1.25" />
<polygon points=" 150,475 1150,475 1150,515 150,515" style="fill:darkgrey;stroke:black;stroke-width:1.25" />
<circle cx="900" cy="450" r="25" fill="lightblue" />
<circle cx="900" cy="450" r="25" fill="none" stroke="black" stroke-width="1.25" />
<polygon points=" 896.156,442.613 878.42,445.84 882.263,428.226 900,425" style="fill:purple;stroke:black;stroke-width:1" />
<polygon points=" 985,455 1015,455 1015,475 985,475" style="fill:peru;stroke:black;stroke-width:1.25" />
<polygon points=" 120,365 180,365 180,475 120,475" style="fill:lightseagreen;stroke:black;stroke-width:1.25" />
<polygon points=" 157,380 165,380 165,388 157,388" style="fill:orange;stroke:black;stroke-width:1.25" />
<polygon points=" 127,380 135,380 135,388 127,388" style="fill:orange;stroke:black;stroke-width:1.25" />
<polygon points=" 180,410 260,410 260,430 180,430" style="fill:turquoise;stroke:black;stroke-width:1.25" />
<polygon points=" 190,430 200,430 200,450 190,450" style="fill:lightgreen;stroke:black;stroke-width:1.25" />
<polygon points=" 240,430 250,430 250,450 240,450" style="fill:lightgreen;stroke:black;stroke-width:1.25" />
<polygon points=" 40,410 120,410 120,430 40,430" style="fill:turquoise;stroke:black;stroke-width:1.25" />
<polygon points=" 50,430 60,430 60,450 50,450" style="fill:lightgreen;stroke:black;stroke-width:1.25" />
<polygon points=" 100,430 110,430 110,450 100,450" style="fill:lightgreen;stroke:black;stroke-width:1.25" />
<polygon points=" 740,365 800,365 800,475 740,475" style="fill:lightseagreen;stroke:black;stroke-width:1.25" />
<polygon points=" 777,380 785,380 785,388 777,388" style="fill:turquoise;stroke:black;stroke-width:1.25" />
<polygon points=" 747,380 755,380 755,388 747,388" style="fill:red;stroke:black;stroke-width:1.25" />
<polygon points=" 800,410 880,410 880,430 800,430" style="fill:turquoise;stroke:black;stroke-width:1.25" />
<polygon points=" 810,430 820,430 820,450 810,450" style="fill:lightgreen;stroke:black;stroke-width:1.25" />
<polygon points=" 860,430 870,430 870,450 860,450" style="fill:lightgreen;stroke:black;stroke-width:1.25" />
<polygon points=" 640,425.5 690,410.5 740,425.5 690,440.5" style="fill:turquoise;stroke:black;stroke-width:1" />
<polygon points=" 667.5,436.75 677.5,436.75 677.5,456.75 667.5,456.75" style="fill:lightgreen;stroke:black;stroke-width:1.25" />
<polygon points=" 702.5,436.75 712.5,436.75 712.5,456.75 702.5,456.75" style="fill:lightgreen;stroke:black;stroke-width:1.25" />


</svg>
