<?xml version="1.0" encoding="utf-8"?>
<svg xmlns="http://www.w3.org/2000/svg" version="1.1" width="1000" height="800">

<line x1="0" y1="0" x2="1000" y2="0" stroke="lightgrey" />
<text x="5" y="-5" fill="lightgrey" >0</text>
<line x1="0" y1="100" x2="1000" y2="100" stroke="lightgrey" />
<text x="5" y="95" fill="lightgrey" >100</text>
<line x1="0" y1="200" x2="1000" y2="200" stroke="lightgrey" />
<text x="5" y="195" fill="lightgrey" >200</text>
<line x1="0" y1="300" x2="1000" y2="300" stroke="lightgrey" />
<text x="5" y="295" fill="lightgrey" >300</text>
<line x1="0" y1="400" x2="1000" y2="400" stroke="lightgrey" />
<text x="5" y="395" fill="lightgrey" >400</text>
<line x1="0" y1="500" x2="1000" y2="500" stroke="lightgrey" />
<text x="5" y="495" fill="lightgrey" >500</text>
<line x1="0" y1="600" x2="1000" y2="600" stroke="lightgrey" />
<text x="5" y="595" fill="lightgrey" >600</text>
<line x1="0" y1="700" x2="1000" y2="700" stroke="lightgrey" />
<text x="5" y="695" fill="lightgrey" >700</text>
<line x1="0" y1="800" x2="1000" y2="800" stroke="lightgrey" />
<text x="5" y="795" fill="lightgrey" >800</text>
<line x1="0" y1="0" x2="0" y2="800" stroke="lightgrey" />
<text x="5" y="15" fill="lightgrey" >0</text>
<line x1="100" y1="0" x2="100" y2="800" stroke="lightgrey" />
<text x="105" y="15" fill="lightgrey" >100</text>
<line x1="200" y1="0" x2="200" y2="800" stroke="lightgrey" />
<text x="205" y="15" fill="lightgrey" >200</text>
<line x1="300" y1="0" x2="300" y2="800" stroke="lightgrey" />
<text x="305" y="15" fill="lightgrey" >300</text>
<line x1="400" y1="0" x2="400" y2="800" stroke="lightgrey" />
<text x="405" y="15" fill="lightgrey" >400</text>
<line x1="500" y1="0" x2="500" y2="800" stroke="lightgrey" />
<text x="505" y="15" fill="lightgrey" >500</text>
<line x1="600" y1="0" x2="600" y2="800" stroke="lightgrey" />
<text x="605" y="15" fill="lightgrey" >600</text>
<line x1="700" y1="0" x2="700" y2="800" stroke="lightgrey" />
<text x="705" y="15" fill="lightgrey" >700</text>
<line x1="800" y1="0" x2="800" y2="800" stroke="lightgrey" />
<text x="805" y="15" fill="lightgrey" >800</text>
<line x1="900" y1="0" x2="900" y2="800" stroke="lightgrey" />
<text x="905" y="15" fill="lightgrey" >900</text>
<line x1="1000" y1="0" x2="1000" y2="800" stroke="lightgrey" />
<text x="1005" y="15" fill="lightgrey" >1000</text>
<circle cx="35.3553" cy="35.3553" r="50" fill="rgb(255,255,255)" />
<circle cx="35.3553" cy="35.3553" r="50" fill="none" stroke="rgb(0,0,0)" stroke-width="1" />
<circle cx="106.066" cy="106.066" r="50" fill="rgb(255,255,255)" />
<circle cx="106.066" cy="106.066" r="50" fill="none" stroke="rgb(0,0,0)" stroke-width="1" />
<circle cx="176.777" cy="176.777" r="50" fill="rgb(255,255,255)" />
<circle cx="176.777" cy="176.777" r="50" fill="none" stroke="rgb(0,0,0)" stroke-width="1" />
<circle cx="247.487" cy="247.487" r="50" fill="rgb(255,255,255)" />
<circle cx="247.487" cy="247.487" r="50" fill="none" stroke="rgb(0,0,0)" stroke-width="1" />
<polygon points=" 247.487,297.487 347.487,297.487 347.487,397.487 247.487,397.487" style="fill:rgb(0,255,0);stroke:rgb(0,0,0);stroke-width:1" />
<polygon points=" 297.487,397.487 397.487,397.487 397.487,497.487 297.487,497.487" style="fill:rgb(0,255,0);stroke:rgb(0,0,0);stroke-width:1" />
<polygon points=" 347.487,497.487 447.487,497.487 447.487,597.487 347.487,597.487" style="fill:rgb(0,255,0);stroke:rgb(0,0,0);stroke-width:1" />
<polygon points=" 397.487,597.487 497.487,597.487 497.487,697.487 397.487,697.487" style="fill:rgb(0,255,0);stroke:rgb(0,0,0);stroke-width:1" />
<polygon points=" 447.487,697.487 547.487,697.487 547.487,797.487 447.487,797.487" style="fill:rgb(0,255,0);stroke:rgb(0,0,0);stroke-width:1" />


</svg>
