<?xml version="1.0" encoding="utf-8"?>
<svg xmlns="http://www.w3.org/2000/svg" version="1.1" width="2000" height="2000">

<polygon points=" 150,75 1150,75 1150,475 150,475" style="fill:azure;stroke:lightgrey;stroke-width:1.25" />
<polygon points=" 150,475 1150,475 1150,515 150,515" style="fill:darkgrey;stroke:black;stroke-width:1.25" />
<circle cx="875" cy="475" r="25" fill="lightblue" />
<circle cx="875" cy="475" r="25" fill="none" stroke="black" stroke-width="1.25" />
<polygon points=" 835,485 820,475 835,465 850,475" style="fill:purple;stroke:black;stroke-width:1" />
<polygon points=" 885,455 915,455 915,475 885,475" style="fill:peru;stroke:black;stroke-width:1.25" />
<polygon points=" 120,365 180,365 180,475 120,475" style="fill:lightseagreen;stroke:black;stroke-width:1.25" />
<polygon points=" 157,380 165,380 165,388 157,388" style="fill:orange;stroke:black;stroke-width:1.25" />
<polygon points=" 127,380 135,380 135,388 127,388" style="fill:orange;stroke:black;stroke-width:1.25" />
<polygon points=" 180,410 260,410 260,430 180,430" style="fill:turquoise;stroke:black;stroke-width:1.25" />
<polygon points=" 190,430 200,430 200,450 190,450" style="fill:lightgreen;stroke:black;stroke-width:1.25" />
<polygon points=" 240,430 250,430 250,450 240,450" style="fill:lightgreen;stroke:black;stroke-width:1.25" />
<polygon points=" 40,410 120,410 120,430 40,430" style="fill:turquoise;stroke:black;stroke-width:1.25" />
<polygon points=" 50,430 60,430 60,450 50,450" style="fill:lightgreen;stroke:black;stroke-width:1.25" />
<polygon points=" 100,430 110,430 110,450 100,450" style="fill:lightgreen;stroke:black;stroke-width:1.25" />
<polygon points=" 720,365 780,365 780,475 720,475" style="fill:lightseagreen;stroke:black;stroke-width:1.25" />
<polygon points=" 757,380 765,380 765,388 757,388" style="fill:turquoise;stroke:black;stroke-width:1.25" />
<polygon points=" 727,380 735,380 735,388 727,388" style="fill:red;stroke:black;stroke-width:1.25" />
<polygon points=" 780,410 860,410 860,430 780,430" style="fill:turquoise;stroke:black;stroke-width:1.25" />
<polygon points=" 790,430 800,430 800,450 790,450" style="fill:lightgreen;stroke:black;stroke-width:1.25" />
<polygon points=" 840,430 850,430 850,450 840,450" style="fill:lightgreen;stroke:black;stroke-width:1.25" />
<polygon points=" 640,410 720,410 720,430 640,430" style="fill:turquoise;stroke:black;stroke-width:1.25" />
<polygon points=" 650,430 660,430 660,450 650,450" style="fill:lightgreen;stroke:black;stroke-width:1.25" />
<polygon points=" 700,430 710,430 710,450 700,450" style="fill:lightgreen;stroke:black;stroke-width:1.25" />


</svg>
