<?xml version="1.0" encoding="utf-8"?>
<svg xmlns="http://www.w3.org/2000/svg" version="1.1" width="2000" height="2000">

<polygon points=" 150,75 1150,75 1150,475 150,475" style="fill:azure;stroke:darkgrey;stroke-width:1.25" />
<polygon points=" 150,475 1150,475 1150,515 150,515" style="fill:darkgrey;stroke:black;stroke-width:1.25" />
<polygon points=" 885,455 915,455 915,475 885,475" style="fill:peru;stroke:black;stroke-width:1.25" />
<polygon points=" 150,475 1150,475 1150,475 150,475" style="fill:red;stroke:red;stroke-width:2.5" />
<polygon points=" 320,365 380,365 380,475 320,475" style="fill:lightseagreen;stroke:black;stroke-width:1.25" />
<polygon points=" 357,380 365,380 365,388 357,388" style="fill:orange;stroke:black;stroke-width:1.25" />
<polygon points=" 327,380 335,380 335,388 327,388" style="fill:orange;stroke:black;stroke-width:1.25" />
<polygon points=" 380,475 380,365 380,365 380,475" style="fill:red;stroke:red;stroke-width:2.5" />
<polygon points=" 380,410 460,410 460,430 380,430" style="fill:turquoise;stroke:black;stroke-width:1.25" />
<polygon points=" 420,430 380,430 380,430 420,430" style="fill:red;stroke:red;stroke-width:2.5" />
<polygon points=" 390,430 400,430 400,450 390,450" style="fill:lightgreen;stroke:black;stroke-width:1.25" />
<polygon points=" 420,430 460,430 460,430 420,430" style="fill:red;stroke:red;stroke-width:2.5" />
<polygon points=" 440,430 450,430 450,450 440,450" style="fill:lightgreen;stroke:black;stroke-width:1.25" />
<polygon points=" 320,475 320,365 320,365 320,475" style="fill:red;stroke:red;stroke-width:2.5" />
<polygon points=" 240,410 320,410 320,430 240,430" style="fill:turquoise;stroke:black;stroke-width:1.25" />
<polygon points=" 280,430 240,430 240,430 280,430" style="fill:red;stroke:red;stroke-width:2.5" />
<polygon points=" 250,430 260,430 260,450 250,450" style="fill:lightgreen;stroke:black;stroke-width:1.25" />
<polygon points=" 280,430 320,430 320,430 280,430" style="fill:red;stroke:red;stroke-width:2.5" />
<polygon points=" 300,430 310,430 310,450 300,450" style="fill:lightgreen;stroke:black;stroke-width:1.25" />
<polygon points=" 150,475 1150,475 1150,475 150,475" style="fill:red;stroke:red;stroke-width:2.5" />
<polygon points=" 620,365 680,365 680,475 620,475" style="fill:lightseagreen;stroke:black;stroke-width:1.25" />
<polygon points=" 657,380 665,380 665,388 657,388" style="fill:turquoise;stroke:black;stroke-width:1.25" />
<polygon points=" 627,380 635,380 635,388 627,388" style="fill:red;stroke:black;stroke-width:1.25" />
<polygon points=" 680,475 680,365 680,365 680,475" style="fill:red;stroke:red;stroke-width:2.5" />
<polygon points=" 680,410 760,410 760,430 680,430" style="fill:turquoise;stroke:black;stroke-width:1.25" />
<polygon points=" 720,430 680,430 680,430 720,430" style="fill:red;stroke:red;stroke-width:2.5" />
<polygon points=" 690,430 700,430 700,450 690,450" style="fill:lightgreen;stroke:black;stroke-width:1.25" />
<polygon points=" 720,430 760,430 760,430 720,430" style="fill:red;stroke:red;stroke-width:2.5" />
<polygon points=" 740,430 750,430 750,450 740,450" style="fill:lightgreen;stroke:black;stroke-width:1.25" />
<polygon points=" 620,475 620,365 620,365 620,475" style="fill:red;stroke:red;stroke-width:2.5" />
<polygon points=" 540,410 620,410 620,430 540,430" style="fill:turquoise;stroke:black;stroke-width:1.25" />
<polygon points=" 580,430 540,430 540,430 580,430" style="fill:red;stroke:red;stroke-width:2.5" />
<polygon points=" 550,430 560,430 560,450 550,450" style="fill:lightgreen;stroke:black;stroke-width:1.25" />
<polygon points=" 580,430 620,430 620,430 580,430" style="fill:red;stroke:red;stroke-width:2.5" />
<polygon points=" 600,430 610,430 610,450 600,450" style="fill:lightgreen;stroke:black;stroke-width:1.25" />


</svg>
