<?xml version="1.0" encoding="utf-8"?>
<svg xmlns="http://www.w3.org/2000/svg" version="1.1" width="1000" height="800">

<line x1="0" y1="0" x2="1000" y2="0" stroke="lightgrey" />
<text x="5" y="-5" fill="lightgrey" >0</text>
<line x1="0" y1="100" x2="1000" y2="100" stroke="lightgrey" />
<text x="5" y="95" fill="lightgrey" >100</text>
<line x1="0" y1="200" x2="1000" y2="200" stroke="lightgrey" />
<text x="5" y="195" fill="lightgrey" >200</text>
<line x1="0" y1="300" x2="1000" y2="300" stroke="lightgrey" />
<text x="5" y="295" fill="lightgrey" >300</text>
<line x1="0" y1="400" x2="1000" y2="400" stroke="lightgrey" />
<text x="5" y="395" fill="lightgrey" >400</text>
<line x1="0" y1="500" x2="1000" y2="500" stroke="lightgrey" />
<text x="5" y="495" fill="lightgrey" >500</text>
<line x1="0" y1="600" x2="1000" y2="600" stroke="lightgrey" />
<text x="5" y="595" fill="lightgrey" >600</text>
<line x1="0" y1="700" x2="1000" y2="700" stroke="lightgrey" />
<text x="5" y="695" fill="lightgrey" >700</text>
<line x1="0" y1="800" x2="1000" y2="800" stroke="lightgrey" />
<text x="5" y="795" fill="lightgrey" >800</text>
<line x1="0" y1="0" x2="0" y2="800" stroke="lightgrey" />
<text x="5" y="15" fill="lightgrey" >0</text>
<line x1="100" y1="0" x2="100" y2="800" stroke="lightgrey" />
<text x="105" y="15" fill="lightgrey" >100</text>
<line x1="200" y1="0" x2="200" y2="800" stroke="lightgrey" />
<text x="205" y="15" fill="lightgrey" >200</text>
<line x1="300" y1="0" x2="300" y2="800" stroke="lightgrey" />
<text x="305" y="15" fill="lightgrey" >300</text>
<line x1="400" y1="0" x2="400" y2="800" stroke="lightgrey" />
<text x="405" y="15" fill="lightgrey" >400</text>
<line x1="500" y1="0" x2="500" y2="800" stroke="lightgrey" />
<text x="505" y="15" fill="lightgrey" >500</text>
<line x1="600" y1="0" x2="600" y2="800" stroke="lightgrey" />
<text x="605" y="15" fill="lightgrey" >600</text>
<line x1="700" y1="0" x2="700" y2="800" stroke="lightgrey" />
<text x="705" y="15" fill="lightgrey" >700</text>
<line x1="800" y1="0" x2="800" y2="800" stroke="lightgrey" />
<text x="805" y="15" fill="lightgrey" >800</text>
<line x1="900" y1="0" x2="900" y2="800" stroke="lightgrey" />
<text x="905" y="15" fill="lightgrey" >900</text>
<line x1="1000" y1="0" x2="1000" y2="800" stroke="lightgrey" />
<text x="1005" y="15" fill="lightgrey" >1000</text>
<polygon points=" 0,0 100,0 100,100 0,100" style="fill:white;stroke:black;stroke-width:1" />
<polygon points=" 100,100 200,100 200,200 100,200" style="fill:white;stroke:black;stroke-width:1" />
<polygon points=" 200,200 300,200 300,300 200,300" style="fill:white;stroke:black;stroke-width:1" />
<polygon points=" 300,300 400,300 400,400 300,400" style="fill:white;stroke:black;stroke-width:1" />
<polygon points=" 380,440 405,390 430,440" style="fill:lightgreen;stroke:black;stroke-width:1" />
<polygon points=" 410,480 435,430 460,480" style="fill:lightgreen;stroke:black;stroke-width:1" />
<polygon points=" 440,520 465,470 490,520" style="fill:lightgreen;stroke:black;stroke-width:1" />
<polygon points=" 470,560 495,510 520,560" style="fill:lightgreen;stroke:black;stroke-width:1" />
<polygon points=" 500,600 525,550 550,600" style="fill:lightgreen;stroke:black;stroke-width:1" />
<polygon points=" 530,640 555,590 580,640" style="fill:lightblue;stroke:black;stroke-width:1" />
<polygon points=" 560,680 585,630 610,680" style="fill:lightblue;stroke:black;stroke-width:1" />
<polygon points=" 590,720 615,670 640,720" style="fill:lightblue;stroke:black;stroke-width:1" />
<polygon points=" 620,760 645,710 670,760" style="fill:lightblue;stroke:black;stroke-width:1" />
<polygon points=" 650,800 675,750 700,800" style="fill:lightblue;stroke:black;stroke-width:1" />


</svg>
