<?xml version="1.0" encoding="utf-8"?>
<svg xmlns="http://www.w3.org/2000/svg" version="1.1" width="2000" height="2000">

<polygon points=" 150,75 1150,75 1150,475 150,475" style="fill:azure;stroke:lightgrey;stroke-width:1.25" />
<polygon points=" 150,475 1150,475 1150,515 150,515" style="fill:darkgrey;stroke:black;stroke-width:1.25" />
<circle cx="900" cy="450" r="25" fill="lightblue" />
<circle cx="900" cy="450" r="25" fill="none" stroke="black" stroke-width="1.25" />
<polygon points=" 896.156,442.613 878.42,445.84 882.263,428.226 900,425" style="fill:purple;stroke:black;stroke-width:1" />
<polygon points=" 985,455 1015,455 1015,475 985,475" style="fill:peru;stroke:black;stroke-width:1.25" />
<polygon points=" 120,365 180,365 180,475 120,475" style="fill:lightseagreen;stroke:black;stroke-width:1.25" />
<polygon points=" 157,380 165,380 165,388 157,388" style="fill:orange;stroke:black;stroke-width:1.25" />
<polygon points=" 127,380 135,380 135,388 127,388" style="fill:orange;stroke:black;stroke-width:1.25" />
<polygon points=" 180,410 260,410 260,430 180,430" style="fill:turquoise;stroke:black;stroke-width:1.25" />
<polygon points=" 190,430 200,430 200,450 190,450" style="fill:lightgreen;stroke:black;stroke-width:1.25" />
<polygon points=" 240,430 250,430 250,450 240,450" style="fill:lightgreen;stroke:black;stroke-width:1.25" />
<polygon points=" 40,410 120,410 120,430 40,430" style="fill:turquoise;stroke:black;stroke-width:1.25" />
<polygon points=" 50,430 60,430 60,450 50,450" style="fill:lightgreen;stroke:black;stroke-width:1.25" />
<polygon points=" 100,430 110,430 110,450 100,450" style="fill:lightgreen;stroke:black;stroke-width:1.25" />
<polygon points=" 750,365 810,365 810,475 750,475" style="fill:lightseagreen;stroke:black;stroke-width:1.25" />
<polygon points=" 787,380 795,380 795,388 787,388" style="fill:turquoise;stroke:black;stroke-width:1.25" />
<polygon points=" 757,380 765,380 765,388 757,388" style="fill:red;stroke:black;stroke-width:1.25" />
<polygon points=" 810,410 890,410 890,430 810,430" style="fill:turquoise;stroke:black;stroke-width:1.25" />
<polygon points=" 820,430 830,430 830,450 820,450" style="fill:lightgreen;stroke:black;stroke-width:1.25" />
<polygon points=" 870,430 880,430 880,450 870,450" style="fill:lightgreen;stroke:black;stroke-width:1.25" />
<polygon points=" 650,425.5 700,410.5 750,425.5 700,440.5" style="fill:turquoise;stroke:black;stroke-width:1" />
<polygon points=" 677.5,436.75 687.5,436.75 687.5,456.75 677.5,456.75" style="fill:lightgreen;stroke:black;stroke-width:1.25" />
<polygon points=" 712.5,436.75 722.5,436.75 722.5,456.75 712.5,456.75" style="fill:lightgreen;stroke:black;stroke-width:1.25" />


</svg>
