<?xml version="1.0" encoding="utf-8"?>
<svg xmlns="http://www.w3.org/2000/svg" version="1.1" width="2000" height="2000">

<polygon points=" 150,75 950,75 950,475 150,475" style="fill:azure;stroke:darkgrey;stroke-width:1.25" />
<polygon points=" 70,475 1030,475 1030,515 70,515" style="fill:darkgrey;stroke:black;stroke-width:1.25" />
<polygon points=" 775,455 805,455 805,475 775,475" style="fill:peru;stroke:black;stroke-width:1.25" />
<polygon points=" 70,475 1030,475 1030,475 70,475" style="fill:red;stroke:red;stroke-width:2.5" />
<polygon points=" 328,365 388,365 388,475 328,475" style="fill:lightseagreen;stroke:black;stroke-width:1.25" />
<polygon points=" 365,380 373,380 373,388 365,388" style="fill:orange;stroke:black;stroke-width:1.25" />
<polygon points=" 335,380 343,380 343,388 335,388" style="fill:orange;stroke:black;stroke-width:1.25" />
<polygon points=" 388,475 388,365 388,365 388,475" style="fill:red;stroke:red;stroke-width:2.5" />
<polygon points=" 388,410 468,410 468,430 388,430" style="fill:turquoise;stroke:black;stroke-width:1.25" />
<polygon points=" 428,430 388,430 388,430 428,430" style="fill:red;stroke:red;stroke-width:2.5" />
<polygon points=" 398,430 408,430 408,450 398,450" style="fill:lightgreen;stroke:black;stroke-width:1.25" />
<polygon points=" 428,430 468,430 468,430 428,430" style="fill:red;stroke:red;stroke-width:2.5" />
<polygon points=" 448,430 458,430 458,450 448,450" style="fill:lightgreen;stroke:black;stroke-width:1.25" />
<polygon points=" 328,475 328,365 328,365 328,475" style="fill:red;stroke:red;stroke-width:2.5" />
<polygon points=" 248,410 328,410 328,430 248,430" style="fill:turquoise;stroke:black;stroke-width:1.25" />
<polygon points=" 288,430 248,430 248,430 288,430" style="fill:red;stroke:red;stroke-width:2.5" />
<polygon points=" 258,430 268,430 268,450 258,450" style="fill:lightgreen;stroke:black;stroke-width:1.25" />
<polygon points=" 288,430 328,430 328,430 288,430" style="fill:red;stroke:red;stroke-width:2.5" />
<polygon points=" 308,430 318,430 318,450 308,450" style="fill:lightgreen;stroke:black;stroke-width:1.25" />
<polygon points=" 70,475 1030,475 1030,475 70,475" style="fill:red;stroke:red;stroke-width:2.5" />
<polygon points=" 616,365 676,365 676,475 616,475" style="fill:lightseagreen;stroke:black;stroke-width:1.25" />
<polygon points=" 653,380 661,380 661,388 653,388" style="fill:turquoise;stroke:black;stroke-width:1.25" />
<polygon points=" 623,380 631,380 631,388 623,388" style="fill:red;stroke:black;stroke-width:1.25" />
<polygon points=" 676,475 676,365 676,365 676,475" style="fill:red;stroke:red;stroke-width:2.5" />
<polygon points=" 676,410 756,410 756,430 676,430" style="fill:turquoise;stroke:black;stroke-width:1.25" />
<polygon points=" 716,430 676,430 676,430 716,430" style="fill:red;stroke:red;stroke-width:2.5" />
<polygon points=" 686,430 696,430 696,450 686,450" style="fill:lightgreen;stroke:black;stroke-width:1.25" />
<polygon points=" 716,430 756,430 756,430 716,430" style="fill:red;stroke:red;stroke-width:2.5" />
<polygon points=" 736,430 746,430 746,450 736,450" style="fill:lightgreen;stroke:black;stroke-width:1.25" />
<polygon points=" 616,475 616,365 616,365 616,475" style="fill:red;stroke:red;stroke-width:2.5" />
<polygon points=" 536,410 616,410 616,430 536,430" style="fill:turquoise;stroke:black;stroke-width:1.25" />
<polygon points=" 576,430 536,430 536,430 576,430" style="fill:red;stroke:red;stroke-width:2.5" />
<polygon points=" 546,430 556,430 556,450 546,450" style="fill:lightgreen;stroke:black;stroke-width:1.25" />
<polygon points=" 576,430 616,430 616,430 576,430" style="fill:red;stroke:red;stroke-width:2.5" />
<polygon points=" 596,430 606,430 606,450 596,450" style="fill:lightgreen;stroke:black;stroke-width:1.25" />


</svg>
