<?xml version="1.0" encoding="utf-8"?>
<svg xmlns="http://www.w3.org/2000/svg" version="1.1" width="2000" height="2000">

<polygon points=" 150,75 1150,75 1150,475 150,475" style="fill:azure;stroke:skyblue;stroke-width:1.25" />
<polygon points=" 150,475 1150,475 1150,515 150,515" style="fill:darkgrey;stroke:black;stroke-width:1.25" />
<circle cx="950" cy="445" r="30" fill="snow" />
<circle cx="950" cy="445" r="30" fill="none" stroke="black" stroke-width="1.25" />
<circle cx="950" cy="390" r="25" fill="snow" />
<circle cx="950" cy="390" r="25" fill="none" stroke="black" stroke-width="1.25" />
<circle cx="950" cy="345" r="20" fill="snow" />
<circle cx="950" cy="345" r="20" fill="none" stroke="black" stroke-width="1.25" />
<polygon points=" 956,335 960,335 960,339 956,339" style="fill:lightsteelblue;stroke:black;stroke-width:1.25" />
<polygon points=" 941,335 945,335 945,339 941,339" style="fill:lightsteelblue;stroke:black;stroke-width:1.25" />
<polygon points=" 947.5,347.5 950,342.5 952.5,347.5" style="fill:orange;stroke:black;stroke-width:1.25" />
<polygon points=" 897.322,378.33 925.513,388.59 924.487,391.41 896.296,381.149" style="fill:sienna;stroke:black;stroke-width:1.25" />
<polygon points=" 974.487,388.59 1002.68,378.33 1003.7,381.149 975.513,391.41" style="fill:sienna;stroke:black;stroke-width:1.25" />
<polygon points=" 1090,275 1110,275 1110,475 1090,475" style="fill:saddlebrown;stroke:black;stroke-width:1.25" />
<polygon points=" 1020,415 1095,340 1170,415" style="fill:darkgreen;stroke:black;stroke-width:1.25" />
<polygon points=" 1035,365 1097.5,302.5 1160,365" style="fill:darkgreen;stroke:black;stroke-width:1.25" />
<polygon points=" 1050,315 1100,265 1150,315" style="fill:darkgreen;stroke:black;stroke-width:1.25" />
<circle cx="350" cy="455" r="20" fill="darkolivegreen" />
<circle cx="350" cy="455" r="20" fill="none" stroke="black" stroke-width="1.25" />
<circle cx="310" cy="455" r="20" fill="darkolivegreen" />
<circle cx="310" cy="455" r="20" fill="none" stroke="black" stroke-width="1.25" />
<circle cx="277.858" cy="440.858" r="18" fill="darkolivegreen" />
<circle cx="277.858" cy="440.858" r="18" fill="none" stroke="black" stroke-width="1.25" />
<circle cx="390" cy="455" r="20" fill="darkolivegreen" />
<circle cx="390" cy="455" r="20" fill="none" stroke="black" stroke-width="1.25" />
<circle cx="422.142" cy="440.858" r="18" fill="darkolivegreen" />
<circle cx="422.142" cy="440.858" r="18" fill="none" stroke="black" stroke-width="1.25" />
<circle cx="350" cy="429" r="6" fill="darkolivegreen" />
<circle cx="350" cy="429" r="6" fill="none" stroke="black" stroke-width="1.25" />
<polygon points=" 250,413 450,413 450,423 250,423" style="fill:darkolivegreen;stroke:black;stroke-width:1.25" />
<polygon points=" 275,388 425,388 425,413 275,413" style="fill:darkolivegreen;stroke:black;stroke-width:1.25" />
<polygon points=" 350,368 400,368 400,388 350,388" style="fill:darkolivegreen;stroke:black;stroke-width:1.25" />
<polygon points=" 400,378 470,378 470,383 400,383" style="fill:darkolivegreen;stroke:black;stroke-width:1.25" />
<circle cx="338" cy="429" r="6" fill="darkolivegreen" />
<circle cx="338" cy="429" r="6" fill="none" stroke="black" stroke-width="1.25" />
<circle cx="326" cy="429" r="6" fill="darkolivegreen" />
<circle cx="326" cy="429" r="6" fill="none" stroke="black" stroke-width="1.25" />
<circle cx="314" cy="429" r="6" fill="darkolivegreen" />
<circle cx="314" cy="429" r="6" fill="none" stroke="black" stroke-width="1.25" />
<circle cx="302" cy="429" r="6" fill="darkolivegreen" />
<circle cx="302" cy="429" r="6" fill="none" stroke="black" stroke-width="1.25" />
<circle cx="362" cy="429" r="6" fill="darkolivegreen" />
<circle cx="362" cy="429" r="6" fill="none" stroke="black" stroke-width="1.25" />
<circle cx="374" cy="429" r="6" fill="darkolivegreen" />
<circle cx="374" cy="429" r="6" fill="none" stroke="black" stroke-width="1.25" />
<circle cx="386" cy="429" r="6" fill="darkolivegreen" />
<circle cx="386" cy="429" r="6" fill="none" stroke="black" stroke-width="1.25" />
<circle cx="398" cy="429" r="6" fill="darkolivegreen" />
<circle cx="398" cy="429" r="6" fill="none" stroke="black" stroke-width="1.25" />
<polygon points=" 135,455 165,455 165,475 135,475" style="fill:peru;stroke:black;stroke-width:1.25" />


</svg>
