<?xml version="1.0" encoding="utf-8"?>
<svg xmlns="http://www.w3.org/2000/svg" version="1.1" width="2000" height="2000">

<polygon points=" 150,75 1150,75 1150,475 150,475" style="fill:azure;stroke:lightgrey;stroke-width:1.25" />
<polygon points=" 150,475 1150,475 1150,515 150,515" style="fill:darkgrey;stroke:black;stroke-width:1.25" />
<circle cx="875" cy="475" r="25" fill="lightblue" />
<circle cx="875" cy="475" r="25" fill="none" stroke="black" stroke-width="1.25" />
<polygon points=" 835,485 820,475 835,465 850,475" style="fill:purple;stroke:black;stroke-width:1" />
<polygon points=" 885,455 915,455 915,475 885,475" style="fill:peru;stroke:black;stroke-width:1.25" />
<polygon points=" 1110,365 1170,365 1170,475 1110,475" style="fill:lightseagreen;stroke:black;stroke-width:1.25" />
<polygon points=" 1147,380 1155,380 1155,388 1147,388" style="fill:orange;stroke:black;stroke-width:1.25" />
<polygon points=" 1117,380 1125,380 1125,388 1117,388" style="fill:orange;stroke:black;stroke-width:1.25" />
<polygon points=" 1170,410 1250,410 1250,430 1170,430" style="fill:turquoise;stroke:black;stroke-width:1.25" />
<polygon points=" 1180,430 1190,430 1190,450 1180,450" style="fill:lightgreen;stroke:black;stroke-width:1.25" />
<polygon points=" 1230,430 1240,430 1240,450 1230,450" style="fill:lightgreen;stroke:black;stroke-width:1.25" />
<polygon points=" 1030,410 1110,410 1110,430 1030,430" style="fill:turquoise;stroke:black;stroke-width:1.25" />
<polygon points=" 1040,430 1050,430 1050,450 1040,450" style="fill:lightgreen;stroke:black;stroke-width:1.25" />
<polygon points=" 1090,430 1100,430 1100,450 1090,450" style="fill:lightgreen;stroke:black;stroke-width:1.25" />
<polygon points=" 1110,365 1170,365 1170,475 1110,475" style="fill:lightseagreen;stroke:black;stroke-width:1.25" />
<polygon points=" 1147,380 1155,380 1155,388 1147,388" style="fill:turquoise;stroke:black;stroke-width:1.25" />
<polygon points=" 1117,380 1125,380 1125,388 1117,388" style="fill:red;stroke:black;stroke-width:1.25" />
<polygon points=" 1170,410 1250,410 1250,430 1170,430" style="fill:turquoise;stroke:black;stroke-width:1.25" />
<polygon points=" 1180,430 1190,430 1190,450 1180,450" style="fill:lightgreen;stroke:black;stroke-width:1.25" />
<polygon points=" 1230,430 1240,430 1240,450 1230,450" style="fill:lightgreen;stroke:black;stroke-width:1.25" />
<polygon points=" 1030,410 1110,410 1110,430 1030,430" style="fill:turquoise;stroke:black;stroke-width:1.25" />
<polygon points=" 1040,430 1050,430 1050,450 1040,450" style="fill:lightgreen;stroke:black;stroke-width:1.25" />
<polygon points=" 1090,430 1100,430 1100,450 1090,450" style="fill:lightgreen;stroke:black;stroke-width:1.25" />


</svg>
